<svg width="2513" height="3332" viewBox="0 0 2513 3332" fill="none" xmlns="http://www.w3.org/2000/svg">
<path d="M1748.7 0C2161.68 36.4442 2476.66 395.869 2500.87 801.411C2536.24 1394.15 2482.24 2031.95 2489.96 2627.35C2425.07 3015.6 2100.96 3306.1 1707.51 3332L664.59 3331.66V1329.34H1171.34V2824.85H1698.86C1863.53 2824.85 1984.38 2647.78 1994.17 2497.06C2029.73 1949.49 1967.6 1362.73 1992.7 811.138C1997.64 684.496 1840.26 506.811 1715.47 506.811H0V0H1748.7Z" fill="#1E96C9"/>
<path d="M1329.18 2666.99V1171.48H506.75V2666.99H0V664.67H1698.86C1753.51 664.67 1842.7 767.476 1835.83 826.781L1836.29 2488.72C1843.99 2559.06 1761.31 2666.99 1690.55 2666.99H1329.18Z" fill="#1E96C9"/>
</svg>
