<svg width="9813" height="2014" viewBox="0 0 9813 2014" fill="none" xmlns="http://www.w3.org/2000/svg">
<path d="M692.417 1232.82C614.371 1309.19 531.35 1349.04 420.104 1349.04C195.939 1349.04 0 1156.42 0 885.762C0 610.117 185.977 420.82 415.117 420.82C521.387 420.82 612.719 460.67 692.416 540.369V103.662H913.256V1325.79H692.416L692.417 1232.82ZM222.502 884.1C222.502 1035.21 322.134 1146.47 459.952 1146.47C596.109 1146.47 702.379 1043.52 702.379 882.438C702.379 728.004 599.433 623.393 459.952 623.393C313.834 623.393 222.502 739.639 222.502 884.1Z" fill="white"/>
<path d="M1962.64 1154.76C1867.99 1289.27 1743.45 1349.04 1557.48 1349.04C1276.86 1349.04 1095.87 1143.14 1095.87 884.099C1095.87 643.317 1270.22 420.818 1554.16 420.818C1833.12 420.818 2022.41 620.068 2022.41 899.037C2022.41 918.962 2020.75 928.935 2020.75 948.86H1310.07C1331.66 1080.04 1431.29 1153.1 1557.48 1153.1C1652.13 1153.1 1715.22 1126.54 1776.66 1066.75L1962.64 1154.76ZM1799.91 774.502C1770.02 671.554 1675.38 608.454 1557.48 608.454C1447.89 608.454 1363.2 663.243 1320.03 774.502H1799.91Z" fill="white"/>
<path d="M2374.4 943.875C2233.26 872.486 2161.86 786.138 2161.86 674.878C2161.86 537.045 2278.09 420.819 2447.46 420.819C2562.03 420.819 2666.64 472.284 2738.05 566.943L2601.89 704.755C2552.07 654.953 2502.26 623.393 2449.12 623.393C2404.29 623.393 2369.42 641.656 2369.42 676.54C2369.42 709.741 2400.96 724.7 2449.12 749.591L2530.48 791.103C2676.61 865.837 2754.65 942.213 2754.65 1073.4C2754.65 1231.15 2630.12 1349.04 2437.5 1349.04C2309.64 1349.04 2205.04 1297.58 2128.65 1197.93L2264.81 1048.49C2316.28 1108.26 2391 1151.43 2449.12 1151.43C2503.92 1151.43 2547.09 1119.89 2547.09 1080.04C2547.09 1041.86 2510.56 1013.62 2449.12 982.062L2374.4 943.875Z" fill="white"/>
<path d="M4200.85 1199.6C4200.85 1370.63 4167.63 1485.21 4066.35 1571.56C3986.65 1637.98 3880.38 1669.52 3745.88 1669.52C3503.44 1669.52 3349.03 1574.89 3289.26 1390.55H3533.34C3578.17 1443.7 3644.59 1466.95 3737.57 1466.95C3818.95 1466.95 3885.37 1445.36 3925.22 1408.82C3978.34 1359.02 3980 1299.22 3980 1216.2C3906.95 1287.61 3827.23 1325.79 3712.67 1325.79C3475.22 1325.79 3289.26 1136.5 3289.26 872.486C3289.26 600.144 3476.89 420.819 3701.04 420.819C3810.64 420.819 3896.98 462.332 3980 540.369V444.069H4200.85L4200.85 1199.6ZM3511.75 874.127C3511.75 1020.27 3616.36 1123.22 3754.19 1123.22C3890.33 1123.22 3991.64 1025.24 3991.64 875.789C3991.64 732.991 3896.98 623.393 3750.86 623.393C3604.74 623.393 3511.75 737.977 3511.75 874.127Z" fill="white"/>
<path d="M4644.14 533.741C4728.82 462.331 4806.87 420.819 4904.83 420.819C5069.21 420.819 5207.04 533.741 5207.04 723.038V1325.79H4986.19V909.012C4986.19 734.653 4971.25 623.394 4836.75 623.394C4775.31 623.394 4722.19 653.291 4687.31 708.08C4642.47 779.49 4644.13 859.189 4644.13 950.524V1325.79H4423.3V444.068H4644.13L4644.14 533.741Z" fill="white"/>
<path d="M5456.09 1325.79V133.539H5481L6271.39 1046.82V133.539H6390.94V1325.79H6364.37L5575.63 424.143V1325.79H5456.09Z" fill="white"/>
<path d="M6737.94 894.073C6742.91 1096.65 6880.74 1244.43 7070.03 1244.43C7254.33 1244.43 7342.34 1139.82 7407.1 1033.55L7501.75 1083.37C7412.09 1259.37 7274.26 1347.38 7081.64 1347.38C6789.4 1347.38 6621.7 1123.22 6621.7 887.424C6621.7 646.642 6799.38 420.819 7075.01 420.819C7325.74 420.819 7528.31 601.806 7531.63 894.073H6737.94ZM7407.1 794.428C7360.6 611.778 7229.42 530.417 7076.68 530.417C6918.92 530.417 6801.04 615.103 6749.56 794.428H7407.1Z" fill="white"/>
<path d="M7843.75 115.275H7956.67V444.068H8137.65V543.692H7956.67V1325.79H7843.75V543.692H7687.68V444.068H7843.75V115.275Z" fill="white"/>
<path d="M8380.07 571.929C8446.47 475.608 8517.88 420.819 8607.55 420.819C8659.01 420.819 8685.58 437.42 8708.83 450.697L8649.06 547.018C8635.78 540.369 8614.2 530.417 8589.29 530.417C8506.26 530.417 8431.53 601.806 8398.33 723.038C8383.37 779.489 8380.07 870.824 8380.07 990.374V1325.79H8260.5V444.068H8380.07V571.929Z" fill="white"/>
<path d="M8939.63 173.389C8939.63 224.873 8896.46 268.048 8844.98 268.048C8793.49 268.048 8752 224.873 8752 173.389C8752 120.262 8795.18 80.4121 8844.98 80.4121C8896.46 80.4121 8939.63 121.924 8939.63 173.389ZM8790.19 444.068H8903.09V1325.79H8790.19V444.068Z" fill="white"/>
<path d="M9035.91 444.068H9172.06L9406.18 769.516L9640.31 444.068H9774.81L9474.27 862.512L9813 1325.79H9675.19L9406.18 955.509L9140.52 1325.79H9004.35L9338.12 862.512L9035.91 444.068Z" fill="white"/>
<path d="M3128.21 444.068H2907.38V1325.79H3128.21V444.068Z" fill="white"/>
<path d="M3017.79 0L3029.5 40.8595C3048.61 107.538 3100.73 159.66 3167.41 178.765L3208.26 190.471L3167.4 202.179C3100.73 221.284 3048.61 273.406 3029.5 340.083L3017.79 380.943L3006.09 340.083C2986.98 273.406 2934.86 221.284 2868.19 202.179L2827.33 190.471L2868.18 178.765C2934.86 159.66 2986.98 107.537 3006.09 40.8595L3017.79 0Z" fill="#1E96C9"/>
<path d="M5461.95 1709.4V1710.1H5459.62V1717.79H5458.78V1710.1H5456.44V1709.4H5461.95ZM5466.4 1711.12C5466.89 1711.12 5467.34 1711.22 5467.73 1711.43C5468.13 1711.64 5468.44 1711.96 5468.66 1712.39C5468.9 1712.82 5469.01 1713.34 5469.01 1713.95V1717.79H5468.18V1714.05C5468.18 1713.34 5468 1712.79 5467.64 1712.42C5467.29 1712.04 5466.81 1711.85 5466.19 1711.85C5465.56 1711.85 5465.06 1712.05 5464.68 1712.45C5464.3 1712.85 5464.12 1713.44 5464.12 1714.22V1717.79H5463.28V1708.91H5464.12V1712.36C5464.32 1711.96 5464.63 1711.66 5465.03 1711.44C5465.44 1711.23 5465.89 1711.12 5466.4 1711.12ZM5471.29 1710C5471.12 1710 5470.98 1709.94 5470.86 1709.82C5470.74 1709.7 5470.68 1709.56 5470.68 1709.38C5470.68 1709.2 5470.74 1709.06 5470.86 1708.95C5470.98 1708.83 5471.12 1708.77 5471.29 1708.77C5471.46 1708.77 5471.6 1708.83 5471.72 1708.95C5471.84 1709.06 5471.9 1709.2 5471.9 1709.38C5471.9 1709.56 5471.84 1709.7 5471.72 1709.82C5471.6 1709.94 5471.46 1710 5471.29 1710ZM5471.71 1711.24V1717.79H5470.87V1711.24H5471.71ZM5476.68 1711.12C5477.47 1711.12 5478.11 1711.36 5478.6 1711.85C5479.1 1712.33 5479.35 1713.03 5479.35 1713.95V1717.79H5478.52V1714.05C5478.52 1713.34 5478.34 1712.79 5477.98 1712.42C5477.63 1712.04 5477.14 1711.85 5476.53 1711.85C5475.9 1711.85 5475.39 1712.05 5475.02 1712.45C5474.64 1712.85 5474.45 1713.44 5474.45 1714.22V1717.79H5473.61V1711.24H5474.45V1712.36C5474.66 1711.96 5474.96 1711.65 5475.35 1711.44C5475.74 1711.23 5476.19 1711.12 5476.68 1711.12ZM5484.75 1717.79L5482.05 1714.85V1717.79H5481.21V1708.91H5482.05V1714.17L5484.69 1711.24H5485.86L5482.75 1714.5L5485.89 1717.79H5484.75ZM5487.12 1717.85C5486.94 1717.85 5486.79 1717.79 5486.67 1717.67C5486.56 1717.55 5486.5 1717.4 5486.5 1717.23C5486.5 1717.05 5486.56 1716.91 5486.67 1716.8C5486.79 1716.68 5486.94 1716.62 5487.12 1716.62C5487.28 1716.62 5487.42 1716.68 5487.54 1716.8C5487.66 1716.91 5487.72 1717.05 5487.72 1717.23C5487.72 1717.4 5487.66 1717.55 5487.54 1717.67C5487.42 1717.79 5487.28 1717.85 5487.12 1717.85ZM5492.06 1713.59C5492.06 1712.77 5492.24 1712.03 5492.6 1711.38C5492.96 1710.73 5493.45 1710.22 5494.08 1709.86C5494.7 1709.49 5495.4 1709.31 5496.16 1709.31C5497.1 1709.31 5497.9 1709.53 5498.56 1709.98C5499.24 1710.42 5499.72 1711.04 5500.03 1711.85H5499.04C5498.8 1711.28 5498.44 1710.84 5497.94 1710.52C5497.45 1710.2 5496.86 1710.04 5496.16 1710.04C5495.55 1710.04 5494.99 1710.18 5494.5 1710.47C5494.01 1710.76 5493.62 1711.18 5493.34 1711.72C5493.06 1712.26 5492.92 1712.88 5492.92 1713.59C5492.92 1714.3 5493.06 1714.93 5493.34 1715.46C5493.62 1716 5494.01 1716.41 5494.5 1716.7C5494.99 1716.99 5495.55 1717.13 5496.16 1717.13C5496.86 1717.13 5497.45 1716.98 5497.94 1716.66C5498.44 1716.34 5498.8 1715.9 5499.04 1715.34H5500.03C5499.72 1716.14 5499.24 1716.76 5498.56 1717.2C5497.89 1717.64 5497.09 1717.86 5496.16 1717.86C5495.4 1717.86 5494.7 1717.68 5494.08 1717.32C5493.45 1716.96 5492.96 1716.45 5492.6 1715.8C5492.24 1715.15 5492.06 1714.42 5492.06 1713.59ZM5502.54 1712.4C5502.73 1712 5503.01 1711.68 5503.38 1711.46C5503.77 1711.23 5504.23 1711.12 5504.79 1711.12V1712H5504.56C5503.95 1712 5503.46 1712.16 5503.09 1712.49C5502.73 1712.82 5502.54 1713.36 5502.54 1714.13V1717.79H5501.7V1711.24H5502.54V1712.4ZM5511.98 1714.18C5511.98 1714.47 5511.97 1714.69 5511.95 1714.84H5506.52C5506.54 1715.34 5506.66 1715.76 5506.88 1716.11C5507.09 1716.46 5507.38 1716.73 5507.73 1716.92C5508.08 1717.09 5508.47 1717.18 5508.88 1717.18C5509.43 1717.18 5509.88 1717.05 5510.25 1716.78C5510.63 1716.52 5510.87 1716.16 5510.99 1715.72H5511.88C5511.72 1716.36 5511.38 1716.88 5510.85 1717.29C5510.33 1717.69 5509.67 1717.89 5508.88 1717.89C5508.27 1717.89 5507.71 1717.75 5507.23 1717.48C5506.74 1717.2 5506.35 1716.81 5506.07 1716.3C5505.8 1715.79 5505.67 1715.2 5505.67 1714.52C5505.67 1713.84 5505.8 1713.24 5506.07 1712.73C5506.35 1712.22 5506.73 1711.82 5507.21 1711.55C5507.7 1711.28 5508.26 1711.14 5508.88 1711.14C5509.51 1711.14 5510.05 1711.28 5510.51 1711.55C5510.99 1711.82 5511.35 1712.19 5511.59 1712.66C5511.85 1713.11 5511.98 1713.62 5511.98 1714.18ZM5511.13 1714.16C5511.13 1713.67 5511.03 1713.25 5510.83 1712.91C5510.63 1712.56 5510.35 1712.3 5510 1712.13C5509.65 1711.95 5509.26 1711.86 5508.85 1711.86C5508.22 1711.86 5507.69 1712.06 5507.25 1712.46C5506.81 1712.86 5506.57 1713.43 5506.52 1714.16H5511.13ZM5513.13 1714.5C5513.13 1713.83 5513.26 1713.24 5513.53 1712.74C5513.8 1712.23 5514.17 1711.84 5514.64 1711.56C5515.12 1711.28 5515.66 1711.14 5516.26 1711.14C5516.89 1711.14 5517.42 1711.29 5517.87 1711.58C5518.33 1711.86 5518.65 1712.23 5518.85 1712.68V1711.24H5519.69V1717.79H5518.85V1716.34C5518.65 1716.79 5518.31 1717.16 5517.86 1717.46C5517.41 1717.74 5516.87 1717.89 5516.25 1717.89C5515.66 1717.89 5515.12 1717.75 5514.64 1717.47C5514.17 1717.19 5513.8 1716.79 5513.53 1716.28C5513.26 1715.77 5513.13 1715.18 5513.13 1714.5ZM5518.85 1714.52C5518.85 1713.99 5518.75 1713.52 5518.53 1713.12C5518.31 1712.72 5518.02 1712.42 5517.64 1712.2C5517.27 1711.98 5516.87 1711.88 5516.42 1711.88C5515.95 1711.88 5515.54 1711.98 5515.17 1712.19C5514.8 1712.4 5514.51 1712.7 5514.29 1713.1C5514.09 1713.49 5513.98 1713.96 5513.98 1714.5C5513.98 1715.04 5514.09 1715.51 5514.29 1715.92C5514.51 1716.32 5514.8 1716.63 5515.17 1716.84C5515.54 1717.05 5515.95 1717.16 5516.42 1717.16C5516.87 1717.16 5517.27 1717.05 5517.64 1716.83C5518.02 1716.62 5518.31 1716.31 5518.53 1715.91C5518.75 1715.51 5518.85 1715.04 5518.85 1714.52ZM5522.7 1711.95V1716.02C5522.7 1716.42 5522.78 1716.69 5522.93 1716.84C5523.08 1717 5523.35 1717.07 5523.74 1717.07H5524.5V1717.79H5523.6C5523.01 1717.79 5522.57 1717.66 5522.28 1717.38C5522 1717.1 5521.85 1716.65 5521.85 1716.02V1711.95H5520.94V1711.24H5521.85V1709.6H5522.7V1711.24H5524.5V1711.95H5522.7ZM5531.82 1714.18C5531.82 1714.47 5531.81 1714.69 5531.79 1714.84H5526.36C5526.38 1715.34 5526.5 1715.76 5526.72 1716.11C5526.93 1716.46 5527.22 1716.73 5527.57 1716.92C5527.92 1717.09 5528.31 1717.18 5528.72 1717.18C5529.27 1717.18 5529.72 1717.05 5530.09 1716.78C5530.47 1716.52 5530.71 1716.16 5530.83 1715.72H5531.72C5531.56 1716.36 5531.22 1716.88 5530.69 1717.29C5530.17 1717.69 5529.51 1717.89 5528.72 1717.89C5528.11 1717.89 5527.55 1717.75 5527.07 1717.48C5526.58 1717.2 5526.19 1716.81 5525.91 1716.3C5525.64 1715.79 5525.51 1715.2 5525.51 1714.52C5525.51 1713.84 5525.64 1713.24 5525.91 1712.73C5526.19 1712.22 5526.57 1711.82 5527.05 1711.55C5527.54 1711.28 5528.1 1711.14 5528.72 1711.14C5529.35 1711.14 5529.89 1711.28 5530.35 1711.55C5530.83 1711.82 5531.19 1712.19 5531.43 1712.66C5531.69 1713.11 5531.82 1713.62 5531.82 1714.18ZM5530.97 1714.16C5530.97 1713.67 5530.87 1713.25 5530.67 1712.91C5530.47 1712.56 5530.19 1712.3 5529.84 1712.13C5529.49 1711.95 5529.1 1711.86 5528.69 1711.86C5528.06 1711.86 5527.53 1712.06 5527.09 1712.46C5526.65 1712.86 5526.41 1713.43 5526.36 1714.16H5530.97ZM5533.5 1717.85C5533.32 1717.85 5533.17 1717.79 5533.05 1717.67C5532.94 1717.55 5532.89 1717.4 5532.89 1717.23C5532.89 1717.05 5532.94 1716.91 5533.05 1716.8C5533.17 1716.68 5533.32 1716.62 5533.5 1716.62C5533.67 1716.62 5533.81 1716.68 5533.92 1716.8C5534.04 1716.91 5534.1 1717.05 5534.1 1717.23C5534.1 1717.4 5534.04 1717.55 5533.92 1717.67C5533.81 1717.79 5533.67 1717.85 5533.5 1717.85ZM5539.67 1717.11H5542.68V1717.79H5538.83V1709.4H5539.67V1717.11ZM5543.49 1714.5C5543.49 1713.83 5543.63 1713.24 5543.89 1712.74C5544.16 1712.23 5544.53 1711.84 5545.01 1711.56C5545.49 1711.28 5546.03 1711.14 5546.63 1711.14C5547.25 1711.14 5547.79 1711.29 5548.23 1711.58C5548.69 1711.86 5549.02 1712.23 5549.22 1712.68V1711.24H5550.06V1717.79H5549.22V1716.34C5549.01 1716.79 5548.68 1717.16 5548.22 1717.46C5547.77 1717.74 5547.24 1717.89 5546.61 1717.89C5546.02 1717.89 5545.49 1717.75 5545.01 1717.47C5544.53 1717.19 5544.16 1716.79 5543.89 1716.28C5543.63 1715.77 5543.49 1715.18 5543.49 1714.5ZM5549.22 1714.52C5549.22 1713.99 5549.11 1713.52 5548.89 1713.12C5548.68 1712.72 5548.38 1712.42 5548.01 1712.2C5547.64 1711.98 5547.23 1711.88 5546.78 1711.88C5546.32 1711.88 5545.9 1711.98 5545.53 1712.19C5545.17 1712.4 5544.87 1712.7 5544.66 1713.1C5544.45 1713.49 5544.35 1713.96 5544.35 1714.5C5544.35 1715.04 5544.45 1715.51 5544.66 1715.92C5544.87 1716.32 5545.17 1716.63 5545.53 1716.84C5545.9 1717.05 5546.32 1717.16 5546.78 1717.16C5547.23 1717.16 5547.64 1717.05 5548.01 1716.83C5548.38 1716.62 5548.68 1716.31 5548.89 1715.91C5549.11 1715.51 5549.22 1715.04 5549.22 1714.52ZM5557.65 1711.24V1717.79H5556.81V1716.64C5556.62 1717.05 5556.32 1717.36 5555.92 1717.58C5555.52 1717.79 5555.08 1717.9 5554.58 1717.9C5553.8 1717.9 5553.16 1717.66 5552.66 1717.18C5552.16 1716.69 5551.92 1715.99 5551.92 1715.07V1711.24H5552.74V1714.97C5552.74 1715.68 5552.92 1716.23 5553.27 1716.6C5553.63 1716.98 5554.12 1717.17 5554.74 1717.17C5555.37 1717.17 5555.87 1716.97 5556.25 1716.57C5556.62 1716.17 5556.81 1715.58 5556.81 1714.8V1711.24H5557.65ZM5562.64 1711.12C5563.43 1711.12 5564.07 1711.36 5564.56 1711.85C5565.06 1712.33 5565.31 1713.03 5565.31 1713.95V1717.79H5564.48V1714.05C5564.48 1713.34 5564.3 1712.79 5563.94 1712.42C5563.59 1712.04 5563.1 1711.85 5562.49 1711.85C5561.85 1711.85 5561.35 1712.05 5560.97 1712.45C5560.6 1712.85 5560.41 1713.44 5560.41 1714.22V1717.79H5559.57V1711.24H5560.41V1712.36C5560.62 1711.96 5560.92 1711.65 5561.31 1711.44C5561.7 1711.23 5562.15 1711.12 5562.64 1711.12ZM5566.78 1714.52C5566.78 1713.84 5566.92 1713.24 5567.19 1712.74C5567.46 1712.23 5567.84 1711.84 5568.32 1711.56C5568.8 1711.28 5569.34 1711.14 5569.96 1711.14C5570.77 1711.14 5571.43 1711.34 5571.95 1711.74C5572.48 1712.14 5572.82 1712.69 5572.97 1713.38H5572.07C5571.96 1712.9 5571.72 1712.54 5571.34 1712.27C5570.97 1712 5570.51 1711.86 5569.96 1711.86C5569.52 1711.86 5569.12 1711.96 5568.77 1712.16C5568.42 1712.36 5568.14 1712.66 5567.93 1713.06C5567.73 1713.46 5567.63 1713.94 5567.63 1714.52C5567.63 1715.09 5567.73 1715.58 5567.93 1715.98C5568.14 1716.38 5568.42 1716.68 5568.77 1716.88C5569.12 1717.08 5569.52 1717.18 5569.96 1717.18C5570.51 1717.18 5570.97 1717.05 5571.34 1716.78C5571.72 1716.51 5571.96 1716.14 5572.07 1715.66H5572.97C5572.82 1716.33 5572.48 1716.87 5571.95 1717.28C5571.42 1717.68 5570.76 1717.89 5569.96 1717.89C5569.34 1717.89 5568.8 1717.75 5568.32 1717.48C5567.84 1717.2 5567.46 1716.81 5567.19 1716.3C5566.92 1715.79 5566.78 1715.2 5566.78 1714.52ZM5577.64 1711.12C5578.14 1711.12 5578.58 1711.22 5578.97 1711.43C5579.37 1711.64 5579.69 1711.96 5579.91 1712.39C5580.14 1712.82 5580.26 1713.34 5580.26 1713.95V1717.79H5579.43V1714.05C5579.43 1713.34 5579.25 1712.79 5578.89 1712.42C5578.54 1712.04 5578.05 1711.85 5577.44 1711.85C5576.81 1711.85 5576.3 1712.05 5575.93 1712.45C5575.55 1712.85 5575.36 1713.44 5575.36 1714.22V1717.79H5574.52V1708.91H5575.36V1712.36C5575.57 1711.96 5575.87 1711.66 5576.27 1711.44C5576.68 1711.23 5577.14 1711.12 5577.64 1711.12ZM5582.26 1717.85C5582.08 1717.85 5581.94 1717.79 5581.82 1717.67C5581.7 1717.55 5581.65 1717.4 5581.65 1717.23C5581.65 1717.05 5581.7 1716.91 5581.82 1716.8C5581.94 1716.68 5582.08 1716.62 5582.26 1716.62C5582.43 1716.62 5582.57 1716.68 5582.68 1716.8C5582.8 1716.91 5582.86 1717.05 5582.86 1717.23C5582.86 1717.4 5582.8 1717.55 5582.68 1717.67C5582.57 1717.79 5582.43 1717.85 5582.26 1717.85Z" fill="white"/>
</svg>
