<svg width="9701" height="1991" viewBox="0 0 9701 1991" fill="none" xmlns="http://www.w3.org/2000/svg">
<g clip-path="url(#clip0_617_97)">
<path d="M684.514 1218.74C607.359 1294.24 525.285 1333.63 415.309 1333.63C193.703 1333.63 0 1143.21 0 875.645C0 603.148 183.855 416.013 410.379 416.013C515.436 416.013 605.725 455.408 684.513 534.197V102.478H902.833V1310.65H684.513L684.514 1218.74ZM219.963 874.002C219.963 1023.39 318.457 1133.37 454.703 1133.37C589.305 1133.37 694.362 1031.6 694.362 872.359C694.362 719.689 592.591 616.273 454.703 616.273C310.252 616.273 219.963 731.191 219.963 874.002Z" fill="#1D4486"/>
<path d="M1940.24 1141.57C1846.67 1274.54 1723.55 1333.63 1539.71 1333.63C1262.29 1333.63 1083.36 1130.09 1083.36 874.001C1083.36 635.969 1255.72 416.012 1536.42 416.012C1812.2 416.012 1999.33 612.986 1999.33 888.769C1999.33 908.466 1997.68 918.325 1997.68 938.022H1295.12C1316.46 1067.71 1414.95 1139.93 1539.71 1139.93C1633.27 1139.93 1695.65 1113.68 1756.38 1054.56L1940.24 1141.57ZM1779.36 765.656C1749.82 663.883 1656.25 601.505 1539.71 601.505C1431.36 601.505 1347.65 655.668 1304.97 765.656H1779.36Z" fill="#1D4486"/>
<path d="M2347.3 933.094C2207.77 862.52 2137.19 777.158 2137.19 667.169C2137.19 530.911 2252.09 416.013 2419.53 416.013C2532.79 416.013 2636.2 466.889 2706.8 560.467L2572.19 696.705C2522.94 647.472 2473.7 616.273 2421.17 616.273C2376.85 616.273 2342.37 634.327 2342.37 668.812C2342.37 701.635 2373.56 716.422 2421.17 741.029L2501.6 782.067C2646.06 855.948 2723.21 931.451 2723.21 1061.14C2723.21 1217.09 2600.09 1333.63 2409.68 1333.63C2283.28 1333.63 2179.87 1282.76 2104.36 1184.25L2238.96 1036.51C2289.84 1095.6 2363.71 1138.28 2421.17 1138.28C2475.34 1138.28 2518.02 1107.1 2518.02 1067.71C2518.02 1029.96 2481.9 1002.04 2421.17 970.845L2347.3 933.094Z" fill="#1D4486"/>
<path d="M4152.91 1185.89C4152.91 1354.97 4120.07 1468.25 4019.94 1553.61C3941.15 1619.28 3836.09 1650.45 3703.13 1650.45C3463.46 1650.45 3310.81 1556.9 3251.72 1374.67H3493.01C3537.33 1427.21 3603 1450.2 3694.91 1450.2C3775.36 1450.2 3841.02 1428.86 3880.42 1392.73C3932.94 1343.49 3934.58 1284.38 3934.58 1202.31C3862.36 1272.9 3783.56 1310.65 3670.3 1310.65C3435.56 1310.65 3251.72 1123.52 3251.72 862.52C3251.72 593.289 3437.21 416.013 3658.8 416.013C3767.15 416.013 3852.51 457.051 3934.58 534.197V438.997H4152.91L4152.91 1185.89ZM3471.67 864.143C3471.67 1008.62 3575.08 1110.39 3711.34 1110.39C3845.93 1110.39 3946.08 1013.53 3946.08 865.786C3946.08 724.618 3852.5 616.273 3708.05 616.273C3563.6 616.273 3471.67 729.548 3471.67 864.143Z" fill="#1D4486"/>
<path d="M4591.13 527.644C4674.85 457.05 4752.01 416.013 4848.85 416.013C5011.36 416.013 5147.61 527.644 5147.61 714.78V1310.65H4929.28V898.629C4929.28 726.262 4914.52 616.274 4781.55 616.274C4720.81 616.274 4668.29 645.83 4633.81 699.992C4589.49 770.587 4591.13 849.376 4591.13 939.667V1310.65H4372.82V438.996H4591.13L4591.13 527.644Z" fill="#1D4486"/>
<path d="M5393.81 1310.65V132.014H5418.44L6199.81 1034.87V132.014H6318V1310.65H6291.73L5511.99 419.299V1310.65H5393.81Z" fill="#1D4486"/>
<path d="M6661.04 883.861C6665.95 1084.12 6802.21 1230.22 6989.34 1230.22C7171.54 1230.22 7258.54 1126.8 7322.56 1021.74L7416.14 1071C7327.49 1244.99 7191.23 1331.99 7000.82 1331.99C6711.92 1331.99 6546.12 1110.39 6546.12 877.288C6546.12 639.256 6721.77 416.013 6994.26 416.013C7242.13 416.013 7442.39 594.933 7445.67 883.861H6661.04ZM7322.56 785.354C7276.6 604.791 7146.91 524.358 6995.91 524.358C6839.96 524.358 6723.42 608.077 6672.52 785.354H7322.56Z" fill="#1D4486"/>
<path d="M7754.23 113.959H7865.86V438.996H8044.78V537.483H7865.86V1310.65H7754.23V537.483H7599.94V438.996H7754.23V113.959Z" fill="#1D4486"/>
<path d="M8284.42 565.396C8350.07 470.176 8420.66 416.013 8509.31 416.013C8560.18 416.013 8586.45 432.424 8609.43 445.549L8550.34 540.77C8537.22 534.197 8515.88 524.359 8491.25 524.359C8409.18 524.359 8335.3 594.933 8302.48 714.78C8287.69 770.586 8284.42 860.877 8284.42 979.062V1310.65H8166.22V438.996H8284.42V565.396Z" fill="#1D4486"/>
<path d="M8837.6 171.408C8837.6 222.304 8794.92 264.986 8744.03 264.986C8693.13 264.986 8652.11 222.304 8652.11 171.408C8652.11 118.888 8694.79 79.4932 8744.03 79.4932C8794.92 79.4932 8837.6 120.531 8837.6 171.408ZM8689.86 438.996H8801.47V1310.65H8689.86V438.996Z" fill="#1D4486"/>
<path d="M8932.78 438.996H9067.37L9298.83 760.727L9530.28 438.996H9663.25L9366.13 852.661L9701 1310.65H9564.76L9298.83 944.595L9036.19 1310.65H8901.58L9231.54 852.661L8932.78 438.996Z" fill="#1D4486"/>
<path d="M3092.51 438.996H2874.19V1310.65H3092.51V438.996Z" fill="#1D4486"/>
<path d="M2983.35 0L2994.92 40.3928C3013.81 106.31 3065.34 157.837 3131.25 176.723L3171.64 188.295L3131.25 199.869C3065.34 218.757 3013.81 270.283 2994.92 336.199L2983.35 376.592L2971.78 336.199C2952.89 270.283 2901.37 218.757 2835.45 199.869L2795.06 188.295L2835.45 176.723C2901.36 157.837 2952.89 106.309 2971.78 40.3928L2983.35 0Z" fill="#1E96C9"/>
<path d="M5399.68 1689.93V1690.63H5397.35V1698.32H5396.51V1690.63H5394.17V1689.93H5399.68ZM5404.12 1691.65C5404.62 1691.65 5405.06 1691.75 5405.45 1691.96C5405.85 1692.17 5406.17 1692.49 5406.39 1692.92C5406.62 1693.34 5406.74 1693.86 5406.74 1694.48V1698.32H5405.91V1694.58C5405.91 1693.86 5405.73 1693.32 5405.37 1692.94C5405.02 1692.57 5404.53 1692.38 5403.92 1692.38C5403.29 1692.38 5402.78 1692.58 5402.41 1692.98C5402.03 1693.38 5401.84 1693.97 5401.84 1694.74V1698.32H5401V1689.44H5401.84V1692.88C5402.05 1692.49 5402.35 1692.19 5402.75 1691.97C5403.16 1691.76 5403.62 1691.65 5404.12 1691.65ZM5409.02 1690.53C5408.85 1690.53 5408.7 1690.47 5408.58 1690.35C5408.46 1690.23 5408.4 1690.08 5408.4 1689.91C5408.4 1689.73 5408.46 1689.59 5408.58 1689.48C5408.7 1689.36 5408.85 1689.3 5409.02 1689.3C5409.18 1689.3 5409.33 1689.36 5409.45 1689.48C5409.57 1689.59 5409.63 1689.73 5409.63 1689.91C5409.63 1690.08 5409.57 1690.23 5409.45 1690.35C5409.33 1690.47 5409.18 1690.53 5409.02 1690.53ZM5409.44 1691.77V1698.32H5408.6V1691.77H5409.44ZM5414.41 1691.65C5415.19 1691.65 5415.83 1691.89 5416.33 1692.38C5416.83 1692.86 5417.07 1693.56 5417.07 1694.48V1698.32H5416.25V1694.58C5416.25 1693.86 5416.07 1693.32 5415.71 1692.94C5415.35 1692.57 5414.87 1692.38 5414.25 1692.38C5413.62 1692.38 5413.12 1692.58 5412.74 1692.98C5412.37 1693.38 5412.18 1693.97 5412.18 1694.74V1698.32H5411.34V1691.77H5412.18V1692.88C5412.39 1692.48 5412.69 1692.18 5413.08 1691.97C5413.47 1691.76 5413.91 1691.65 5414.41 1691.65ZM5422.47 1698.32L5419.77 1695.38V1698.32H5418.93V1689.44H5419.77V1694.7L5422.41 1691.77H5423.59L5420.48 1695.03L5423.61 1698.32H5422.47ZM5424.84 1698.38C5424.67 1698.38 5424.52 1698.32 5424.4 1698.2C5424.29 1698.08 5424.23 1697.93 5424.23 1697.76C5424.23 1697.58 5424.29 1697.44 5424.4 1697.32C5424.52 1697.2 5424.67 1697.14 5424.84 1697.14C5425.01 1697.14 5425.15 1697.2 5425.26 1697.32C5425.38 1697.44 5425.44 1697.58 5425.44 1697.76C5425.44 1697.93 5425.38 1698.08 5425.26 1698.2C5425.15 1698.32 5425.01 1698.38 5424.84 1698.38ZM5429.79 1694.12C5429.79 1693.3 5429.97 1692.56 5430.33 1691.91C5430.69 1691.26 5431.18 1690.75 5431.8 1690.39C5432.43 1690.02 5433.12 1689.84 5433.89 1689.84C5434.83 1689.84 5435.63 1690.06 5436.29 1690.51C5436.96 1690.95 5437.45 1691.57 5437.75 1692.38H5436.77C5436.53 1691.81 5436.16 1691.37 5435.67 1691.05C5435.18 1690.73 5434.59 1690.57 5433.89 1690.57C5433.27 1690.57 5432.72 1690.71 5432.22 1691C5431.73 1691.29 5431.35 1691.7 5431.07 1692.25C5430.79 1692.78 5430.65 1693.41 5430.65 1694.12C5430.65 1694.83 5430.79 1695.46 5431.07 1695.99C5431.35 1696.53 5431.73 1696.94 5432.22 1697.23C5432.72 1697.52 5433.27 1697.66 5433.89 1697.66C5434.59 1697.66 5435.18 1697.5 5435.67 1697.19C5436.16 1696.87 5436.53 1696.43 5436.77 1695.87H5437.75C5437.45 1696.67 5436.96 1697.29 5436.29 1697.73C5435.62 1698.17 5434.82 1698.39 5433.89 1698.39C5433.12 1698.39 5432.43 1698.21 5431.8 1697.85C5431.18 1697.48 5430.69 1696.98 5430.33 1696.33C5429.97 1695.68 5429.79 1694.94 5429.79 1694.12ZM5440.27 1692.93C5440.45 1692.52 5440.73 1692.21 5441.11 1691.98C5441.49 1691.76 5441.96 1691.65 5442.51 1691.65V1692.52H5442.28C5441.68 1692.52 5441.19 1692.69 5440.82 1693.02C5440.45 1693.34 5440.27 1693.89 5440.27 1694.66V1698.32H5439.43V1691.77H5440.27V1692.93ZM5449.7 1694.71C5449.7 1695 5449.7 1695.22 5449.68 1695.37H5444.24C5444.27 1695.86 5444.39 1696.29 5444.6 1696.64C5444.82 1696.99 5445.1 1697.26 5445.46 1697.44C5445.81 1697.62 5446.19 1697.71 5446.61 1697.71C5447.15 1697.71 5447.61 1697.58 5447.98 1697.31C5448.35 1697.05 5448.6 1696.69 5448.72 1696.24H5449.61C5449.45 1696.88 5449.1 1697.41 5448.58 1697.82C5448.06 1698.22 5447.4 1698.42 5446.61 1698.42C5445.99 1698.42 5445.44 1698.28 5444.95 1698.01C5444.46 1697.73 5444.08 1697.34 5443.8 1696.83C5443.53 1696.32 5443.39 1695.72 5443.39 1695.04C5443.39 1694.36 5443.53 1693.77 5443.8 1693.26C5444.07 1692.74 5444.45 1692.35 5444.94 1692.08C5445.43 1691.81 5445.98 1691.67 5446.61 1691.67C5447.23 1691.67 5447.78 1691.81 5448.24 1692.08C5448.71 1692.35 5449.07 1692.72 5449.32 1693.18C5449.58 1693.64 5449.7 1694.15 5449.7 1694.71ZM5448.85 1694.68C5448.86 1694.2 5448.76 1693.78 5448.55 1693.44C5448.35 1693.09 5448.08 1692.83 5447.72 1692.66C5447.37 1692.48 5446.99 1692.39 5446.57 1692.39C5445.95 1692.39 5445.42 1692.59 5444.98 1692.99C5444.54 1693.39 5444.29 1693.96 5444.24 1694.68H5448.85ZM5450.86 1695.03C5450.86 1694.36 5450.99 1693.77 5451.25 1693.27C5451.53 1692.76 5451.9 1692.36 5452.37 1692.09C5452.85 1691.81 5453.39 1691.67 5453.99 1691.67C5454.61 1691.67 5455.15 1691.82 5455.6 1692.1C5456.05 1692.39 5456.38 1692.76 5456.58 1693.21V1691.77H5457.42V1698.32H5456.58V1696.87C5456.37 1697.32 5456.04 1697.69 5455.59 1697.98C5455.14 1698.27 5454.6 1698.42 5453.98 1698.42C5453.39 1698.42 5452.85 1698.28 5452.37 1698C5451.9 1697.72 5451.53 1697.32 5451.25 1696.81C5450.99 1696.3 5450.86 1695.7 5450.86 1695.03ZM5456.58 1695.04C5456.58 1694.52 5456.47 1694.05 5456.26 1693.65C5456.04 1693.25 5455.75 1692.94 5455.37 1692.73C5455 1692.51 5454.59 1692.4 5454.15 1692.4C5453.68 1692.4 5453.27 1692.51 5452.9 1692.72C5452.53 1692.92 5452.24 1693.23 5452.02 1693.63C5451.81 1694.02 5451.71 1694.49 5451.71 1695.03C5451.71 1695.57 5451.81 1696.04 5452.02 1696.45C5452.24 1696.85 5452.53 1697.16 5452.9 1697.37C5453.27 1697.58 5453.68 1697.68 5454.15 1697.68C5454.59 1697.68 5455 1697.58 5455.37 1697.36C5455.75 1697.14 5456.04 1696.84 5456.26 1696.44C5456.47 1696.04 5456.58 1695.57 5456.58 1695.04ZM5460.43 1692.48V1696.54C5460.43 1696.94 5460.51 1697.22 5460.66 1697.37C5460.81 1697.52 5461.08 1697.6 5461.46 1697.6H5462.23V1698.32H5461.33C5460.74 1698.32 5460.3 1698.18 5460.01 1697.91C5459.72 1697.63 5459.58 1697.18 5459.58 1696.54V1692.48H5458.67V1691.77H5459.58V1690.12H5460.43V1691.77H5462.23V1692.48H5460.43ZM5469.54 1694.71C5469.54 1695 5469.54 1695.22 5469.52 1695.37H5464.08C5464.11 1695.86 5464.23 1696.29 5464.44 1696.64C5464.66 1696.99 5464.94 1697.26 5465.3 1697.44C5465.65 1697.62 5466.03 1697.71 5466.45 1697.71C5466.99 1697.71 5467.45 1697.58 5467.82 1697.31C5468.19 1697.05 5468.44 1696.69 5468.56 1696.24H5469.45C5469.29 1696.88 5468.94 1697.41 5468.42 1697.82C5467.9 1698.22 5467.24 1698.42 5466.45 1698.42C5465.83 1698.42 5465.28 1698.28 5464.79 1698.01C5464.3 1697.73 5463.92 1697.34 5463.64 1696.83C5463.37 1696.32 5463.23 1695.72 5463.23 1695.04C5463.23 1694.36 5463.37 1693.77 5463.64 1693.26C5463.91 1692.74 5464.29 1692.35 5464.78 1692.08C5465.27 1691.81 5465.82 1691.67 5466.45 1691.67C5467.07 1691.67 5467.62 1691.81 5468.08 1692.08C5468.55 1692.35 5468.91 1692.72 5469.16 1693.18C5469.42 1693.64 5469.54 1694.15 5469.54 1694.71ZM5468.69 1694.68C5468.7 1694.2 5468.6 1693.78 5468.39 1693.44C5468.19 1693.09 5467.92 1692.83 5467.56 1692.66C5467.21 1692.48 5466.83 1692.39 5466.41 1692.39C5465.79 1692.39 5465.26 1692.59 5464.82 1692.99C5464.38 1693.39 5464.13 1693.96 5464.08 1694.68H5468.69ZM5471.23 1698.38C5471.05 1698.38 5470.9 1698.32 5470.78 1698.2C5470.67 1698.08 5470.61 1697.93 5470.61 1697.76C5470.61 1697.58 5470.67 1697.44 5470.78 1697.32C5470.9 1697.2 5471.05 1697.14 5471.23 1697.14C5471.39 1697.14 5471.53 1697.2 5471.65 1697.32C5471.77 1697.44 5471.83 1697.58 5471.83 1697.76C5471.83 1697.93 5471.77 1698.08 5471.65 1698.2C5471.53 1698.32 5471.39 1698.38 5471.23 1698.38ZM5477.39 1697.64H5480.41V1698.32H5476.55V1689.93H5477.39V1697.64ZM5481.22 1695.03C5481.22 1694.36 5481.35 1693.77 5481.62 1693.27C5481.89 1692.76 5482.26 1692.36 5482.73 1692.09C5483.21 1691.81 5483.75 1691.67 5484.35 1691.67C5484.98 1691.67 5485.51 1691.82 5485.96 1692.1C5486.42 1692.39 5486.74 1692.76 5486.94 1693.21V1691.77H5487.78V1698.32H5486.94V1696.87C5486.74 1697.32 5486.4 1697.69 5485.95 1697.98C5485.5 1698.27 5484.96 1698.42 5484.34 1698.42C5483.75 1698.42 5483.21 1698.28 5482.73 1698C5482.26 1697.72 5481.89 1697.32 5481.62 1696.81C5481.35 1696.3 5481.22 1695.7 5481.22 1695.03ZM5486.94 1695.04C5486.94 1694.52 5486.84 1694.05 5486.62 1693.65C5486.4 1693.25 5486.11 1692.94 5485.73 1692.73C5485.36 1692.51 5484.96 1692.4 5484.51 1692.4C5484.04 1692.4 5483.63 1692.51 5483.26 1692.72C5482.89 1692.92 5482.6 1693.23 5482.38 1693.63C5482.18 1694.02 5482.07 1694.49 5482.07 1695.03C5482.07 1695.57 5482.18 1696.04 5482.38 1696.45C5482.6 1696.85 5482.89 1697.16 5483.26 1697.37C5483.63 1697.58 5484.04 1697.68 5484.51 1697.68C5484.96 1697.68 5485.36 1697.58 5485.73 1697.36C5486.11 1697.14 5486.4 1696.84 5486.62 1696.44C5486.84 1696.04 5486.94 1695.57 5486.94 1695.04ZM5495.38 1691.77V1698.32H5494.54V1697.17C5494.35 1697.58 5494.05 1697.89 5493.65 1698.1C5493.25 1698.32 5492.8 1698.43 5492.31 1698.43C5491.52 1698.43 5490.88 1698.19 5490.39 1697.71C5489.89 1697.22 5489.64 1696.52 5489.64 1695.6V1691.77H5490.47V1695.5C5490.47 1696.21 5490.65 1696.76 5491 1697.13C5491.36 1697.51 5491.85 1697.7 5492.46 1697.7C5493.09 1697.7 5493.6 1697.5 5493.97 1697.1C5494.35 1696.7 5494.54 1696.11 5494.54 1695.33V1691.77H5495.38ZM5500.37 1691.65C5501.15 1691.65 5501.79 1691.89 5502.29 1692.38C5502.78 1692.86 5503.03 1693.56 5503.03 1694.48V1698.32H5502.2V1694.58C5502.2 1693.86 5502.02 1693.32 5501.66 1692.94C5501.31 1692.57 5500.83 1692.38 5500.21 1692.38C5499.58 1692.38 5499.08 1692.58 5498.7 1692.98C5498.32 1693.38 5498.14 1693.97 5498.14 1694.74V1698.32H5497.3V1691.77H5498.14V1692.88C5498.34 1692.48 5498.64 1692.18 5499.04 1691.97C5499.43 1691.76 5499.87 1691.65 5500.37 1691.65ZM5504.51 1695.04C5504.51 1694.36 5504.64 1693.77 5504.91 1693.27C5505.19 1692.76 5505.56 1692.36 5506.04 1692.09C5506.52 1691.81 5507.07 1691.67 5507.69 1691.67C5508.49 1691.67 5509.16 1691.87 5509.68 1692.27C5510.21 1692.67 5510.55 1693.22 5510.7 1693.9H5509.8C5509.69 1693.43 5509.44 1693.06 5509.07 1692.8C5508.7 1692.53 5508.24 1692.39 5507.69 1692.39C5507.25 1692.39 5506.85 1692.49 5506.5 1692.69C5506.15 1692.89 5505.87 1693.19 5505.66 1693.59C5505.46 1693.98 5505.36 1694.47 5505.36 1695.04C5505.36 1695.62 5505.46 1696.11 5505.66 1696.51C5505.87 1696.91 5506.15 1697.21 5506.5 1697.41C5506.85 1697.61 5507.25 1697.71 5507.69 1697.71C5508.24 1697.71 5508.7 1697.58 5509.07 1697.31C5509.44 1697.04 5509.69 1696.66 5509.8 1696.18H5510.7C5510.55 1696.86 5510.21 1697.4 5509.68 1697.8C5509.15 1698.21 5508.49 1698.42 5507.69 1698.42C5507.07 1698.42 5506.52 1698.28 5506.04 1698.01C5505.56 1697.73 5505.19 1697.34 5504.91 1696.83C5504.64 1696.32 5504.51 1695.72 5504.51 1695.04ZM5515.37 1691.65C5515.87 1691.65 5516.31 1691.75 5516.7 1691.96C5517.1 1692.17 5517.41 1692.49 5517.64 1692.92C5517.87 1693.34 5517.99 1693.86 5517.99 1694.48V1698.32H5517.16V1694.58C5517.16 1693.86 5516.98 1693.32 5516.62 1692.94C5516.27 1692.57 5515.78 1692.38 5515.17 1692.38C5514.53 1692.38 5514.03 1692.58 5513.65 1692.98C5513.28 1693.38 5513.09 1693.97 5513.09 1694.74V1698.32H5512.25V1689.44H5513.09V1692.88C5513.3 1692.49 5513.6 1692.19 5514 1691.97C5514.41 1691.76 5514.87 1691.65 5515.37 1691.65ZM5519.99 1698.38C5519.81 1698.38 5519.66 1698.32 5519.54 1698.2C5519.43 1698.08 5519.37 1697.93 5519.37 1697.76C5519.37 1697.58 5519.43 1697.44 5519.54 1697.32C5519.66 1697.2 5519.81 1697.14 5519.99 1697.14C5520.15 1697.14 5520.29 1697.2 5520.41 1697.32C5520.53 1697.44 5520.59 1697.58 5520.59 1697.76C5520.59 1697.93 5520.53 1698.08 5520.41 1698.2C5520.29 1698.32 5520.15 1698.38 5519.99 1698.38Z" fill="#1D4486"/>
</g>
<defs>
<clipPath id="clip0_617_97">
<rect width="9701" height="1991" fill="white"/>
</clipPath>
</defs>
</svg>
